<svg x="0px" y="0px" viewBox="0 0 96 36" enable-background="new 0 0 96 36">
	<path d="M13.2,20.7v8.1C12.6,28.9,12,29,11.4,29c-3.1,0-5.7-1-7.8-3.1s-3.1-4.6-3.1-7.7c0-3,1.1-5.6,3.2-7.7s4.7-3.1,7.7-3.1 c3.4,0,6,1,8,3c1.9,2,2.9,4.7,2.9,8.1v10.2h-7.8v-9.6c0-1.1-0.3-2-0.8-2.6c-0.5-0.7-1.3-1-2.2-1c-0.8,0-1.5,0.3-2.1,0.9 c-0.6,0.6-0.9,1.3-0.9,2.1c0,0.9,0.3,1.6,0.8,2.1c0.5,0.6,1.2,0.8,2.1,0.8C11.9,21.2,12.6,21,13.2,20.7z"/>
	<path d="M31.2,0v28.5h-7.8V0H31.2z"/>
	<path d="M39.7,36.1h-7.8V18.8c0-3.2,0.8-5.8,2.5-7.8c1-1.2,2.2-2.1,3.7-2.8c1.5-0.7,3-1,4.6-1c3.1,0,5.7,1,7.8,3.1s3.2,4.6,3.2,7.7 c0,2.9-1.1,5.5-3.2,7.6c-2.1,2.1-4.6,3.2-7.5,3.2c-0.5,0-1.2,0-2.1-0.1v-8.6c0.6,0.5,1.3,0.8,1.9,0.8c0.8,0,1.5-0.3,2.1-0.9 s0.9-1.3,0.9-2.1c0-0.8-0.3-1.5-0.9-2.1c-0.6-0.6-1.3-0.9-2.1-0.9c-2,0-3,1.4-3,4.1v17.1H39.7z"/>
	<path d="M62.4,0v8.7c1.3-1,2.6-1.4,4-1.4c2,0,3.6,0.7,4.8,2.2c1.2,1.4,1.8,3.4,1.8,5.9v13.2h-7.8v-11c0-0.9-0.1-1.5-0.3-1.8 c-0.2-0.3-0.6-0.5-1.1-0.5c-0.9,0-1.3,0.6-1.3,1.9v11.3h-7.8V0H62.4z"/>
	<path d="M86.5,20.7v8.1c-0.6,0.1-1.2,0.2-1.8,0.2c-3.1,0-5.7-1-7.8-3.1s-3.1-4.6-3.1-7.7c0-3,1.1-5.6,3.2-7.7s4.7-3.1,7.7-3.1 c3.4,0,6,1,8,3c1.9,2,2.9,4.7,2.9,8.1v10.2h-7.8v-9.6c0-1.1-0.3-2-0.8-2.6c-0.5-0.7-1.3-1-2.2-1c-0.8,0-1.5,0.3-2.1,0.9 c-0.6,0.6-0.9,1.3-0.9,2.1c0,0.9,0.3,1.6,0.8,2.1c0.5,0.6,1.2,0.8,2.1,0.8C85.3,21.2,86,21,86.5,20.7z"/>
</svg>