<?xml version="1.0" standalone="no"?>
<!DOCTYPE svg PUBLIC "-//W3C//DTD SVG 20010904//EN"
 "http://www.w3.org/TR/2001/REC-SVG-20010904/DTD/svg10.dtd">
<svg version="1.0" xmlns="http://www.w3.org/2000/svg"
 width="376.000000pt" height="376.000000pt" viewBox="0 0 376.000000 376.000000"
 preserveAspectRatio="xMidYMid meet">
<metadata>
Created by potrace 1.11, written by Peter Selinger 2001-2013
</metadata>
<g transform="translate(0.000000,376.000000) scale(0.100000,-0.100000)"
fill="#000000" stroke="none">
<path d="M0 1880 l0 -1880 1880 0 1880 0 0 1880 0 1880 -1880 0 -1880 0 0
-1880z m1004 294 c66 -32 129 -96 159 -162 31 -67 32 -236 1 -303 -62 -133
-195 -208 -350 -196 -128 10 -235 82 -287 195 -32 68 -32 236 -1 303 26 56 82
120 132 151 91 56 244 62 346 12z m800 11 c24 -12 49 -35 65 -62 14 -23 28
-42 31 -42 3 0 14 14 25 32 87 137 340 127 414 -18 26 -49 26 -53 29 -307 l3
-258 -39 0 -40 0 -4 238 c-3 231 -4 238 -28 282 -34 61 -77 83 -153 77 -76 -7
-127 -40 -158 -104 -23 -45 -24 -60 -27 -270 l-4 -223 -38 0 -38 0 -4 238 c-3
223 -5 240 -26 284 -61 123 -242 95 -313 -49 -22 -45 -24 -62 -27 -260 l-4
-213 -44 0 -44 0 0 330 0 330 39 0 c35 0 39 -3 45 -31 3 -17 6 -43 6 -58 l0
-26 20 30 c23 37 69 72 118 91 49 18 147 13 196 -11z m1243 -11 c98 -50 163
-164 163 -287 l0 -47 -280 0 -279 0 5 -32 c10 -57 54 -137 90 -164 101 -77
247 -69 339 19 l43 42 33 -27 33 -28 -52 -49 c-68 -66 -159 -96 -266 -88 -197
15 -313 154 -304 365 5 138 64 239 171 293 66 34 87 39 169 35 62 -2 89 -9
135 -32z"/>
<path d="M750 2110 c-217 -74 -220 -419 -4 -499 183 -69 357 53 357 249 0 124
-69 223 -177 255 -65 20 -109 18 -176 -5z"/>
<path d="M2815 2118 c-68 -25 -134 -96 -155 -166 l-9 -32 236 0 236 0 -6 37
c-15 91 -109 164 -216 170 -31 1 -69 -2 -86 -9z"/>
</g>
</svg>
