<?xml version="1.0" standalone="no"?>
<!DOCTYPE svg PUBLIC "-//W3C//DTD SVG 20010904//EN"
 "http://www.w3.org/TR/2001/REC-SVG-20010904/DTD/svg10.dtd">
<svg version="1.0" xmlns="http://www.w3.org/2000/svg"
 width="376.000000pt" height="376.000000pt" viewBox="0 0 376.000000 376.000000"
 preserveAspectRatio="xMidYMid meet">
<metadata>
Created by potrace 1.11, written by Peter Selinger 2001-2013
</metadata>
<g transform="translate(0.000000,376.000000) scale(0.100000,-0.100000)"
fill="#000000" stroke="none">
<path d="M0 1880 l0 -1880 1880 0 1880 0 0 1880 0 1880 -1880 0 -1880 0 0
-1880z m997 295 c72 -32 133 -92 166 -163 31 -68 31 -236 0 -304 -52 -112
-164 -186 -294 -196 -144 -10 -275 62 -336 186 -25 51 -28 67 -28 162 0 87 4
113 22 152 41 90 130 164 227 189 63 16 177 4 243 -26z m800 11 c38 -18 58
-35 75 -65 13 -23 25 -41 28 -41 3 1 14 15 25 33 42 67 129 102 230 94 70 -5
116 -26 157 -71 50 -55 58 -104 58 -368 l0 -238 -39 0 -39 0 -4 238 c-3 216
-5 240 -24 276 -29 56 -63 78 -127 84 -104 8 -182 -51 -206 -158 -6 -25 -11
-134 -11 -242 l0 -198 -39 0 -39 0 -4 238 c-3 224 -4 240 -27 285 -29 59 -67
81 -131 75 -100 -10 -178 -79 -199 -178 -6 -28 -11 -134 -11 -235 l0 -185 -45
0 -45 0 0 330 0 330 39 0 c35 0 39 -3 45 -31 3 -17 6 -43 6 -58 l0 -26 21 32
c58 91 200 128 306 79z m1201 9 c118 -35 197 -142 209 -282 l6 -73 -281 0
-281 0 5 -32 c10 -57 54 -137 90 -164 101 -77 247 -69 339 19 l43 42 32 -27
32 -27 -50 -50 c-66 -66 -158 -96 -266 -88 -127 9 -215 66 -268 175 -31 62
-33 73 -33 172 0 92 3 112 26 161 71 150 235 222 397 174z"/>
<path d="M770 2121 c-73 -23 -136 -79 -166 -149 -20 -48 -23 -144 -5 -204 50
-173 277 -234 418 -113 115 98 115 312 0 410 -65 56 -169 79 -247 56z"/>
<path d="M2815 2120 c-64 -20 -134 -97 -156 -172 l-8 -28 236 0 236 0 -6 36
c-15 93 -103 164 -210 170 -34 2 -76 -1 -92 -6z"/>
</g>
</svg>
